<?xml version="1.0" standalone="no"?>
<!DOCTYPE svg PUBLIC "-//W3C//DTD SVG 20010904//EN"
 "http://www.w3.org/TR/2001/REC-SVG-20010904/DTD/svg10.dtd">
<svg version="1.0" xmlns="http://www.w3.org/2000/svg"
 width="300.000000pt" height="298.000000pt" viewBox="0 0 300.000000 298.000000"
 preserveAspectRatio="xMidYMid meet">
<metadata>
Created by potrace 1.10, written by Peter Selinger 2001-2011
</metadata>
<g transform="translate(0.000000,298.000000) scale(0.100000,-0.100000)"
fill="#000000" stroke="none">
<path d="M1219 2814 c-6 -8 -21 -14 -33 -14 -34 0 -93 -46 -121 -94 -30 -51
-39 -56 -124 -65 -54 -6 -60 -5 -45 6 53 37 124 97 124 104 0 11 -62 -28 -123
-79 -29 -24 -71 -52 -94 -62 -24 -10 -59 -31 -79 -46 l-36 -28 41 82 c23 45
38 82 33 82 -13 0 -69 -101 -87 -157 -21 -64 -31 -73 -84 -75 -22 -1 -41 -5
-41 -10 0 -5 -13 -7 -30 -3 -33 7 -40 -7 -16 -34 12 -14 11 -27 -7 -97 -12
-45 -27 -87 -33 -95 -5 -8 -10 -33 -9 -56 1 -23 -2 -40 -6 -37 -4 2 -25 -15
-46 -38 -21 -24 -74 -77 -117 -119 l-79 -75 27 -120 c14 -65 26 -124 26 -131
0 -6 -25 -55 -56 -108 l-56 -97 44 -72 43 -71 -24 -100 -25 -99 202 -196 c256
-249 470 -457 648 -633 l141 -138 304 86 c167 48 309 91 315 96 6 5 19 6 28 3
9 -4 24 0 34 8 9 8 29 19 45 26 34 14 36 31 2 24 -14 -2 -22 -9 -18 -15 4 -6
0 -8 -10 -4 -24 9 -77 -3 -77 -17 0 -7 -46 -24 -102 -39 -155 -40 -271 -72
-399 -109 l-115 -34 -340 333 c-186 183 -338 337 -336 343 1 6 -1 9 -6 6 -5
-3 -73 57 -151 132 l-142 137 14 50 c8 28 18 63 22 79 6 27 10 23 67 -77 34
-58 64 -104 67 -102 4 2 7 -4 8 -13 1 -9 7 -39 14 -67 8 -34 14 -45 18 -32 5
13 14 5 39 -38 18 -30 35 -55 38 -55 6 0 -9 30 -53 103 -35 58 -46 99 -113
427 -8 35 -15 59 -17 53 -5 -13 2 -51 42 -237 14 -65 25 -121 25 -125 0 -3
-28 41 -61 98 l-61 104 17 81 c10 44 21 87 25 96 8 17 111 428 113 448 1 21
13 0 33 -56 10 -29 27 -60 38 -70 11 -9 16 -11 12 -4 -4 7 -1 12 9 12 9 0 13
-4 10 -10 -3 -5 3 -10 14 -10 12 0 21 7 21 15 0 8 9 15 19 15 29 0 35 -18 9
-23 -20 -4 -19 -4 5 -6 21 -1 27 4 27 19 0 13 -7 20 -20 20 -19 0 -45 32 -34
42 3 3 -4 8 -16 11 -13 3 -18 1 -13 -6 4 -6 -2 -8 -18 -4 -13 4 -30 7 -36 7
-7 0 -22 18 -33 40 -18 35 -19 47 -10 107 7 54 14 73 35 91 14 12 21 22 15 22
-6 0 -8 5 -5 10 4 6 15 4 28 -7 22 -16 22 -18 7 -48 -8 -17 -23 -32 -32 -32
-22 -2 -22 6 -2 37 17 24 17 25 -2 7 -15 -14 -19 -32 -19 -78 0 -33 1 -55 3
-50 2 6 8 11 14 11 6 0 7 -15 3 -38 -5 -29 -2 -42 10 -52 20 -17 25 -11 27 36
l2 39 20 -45 c15 -34 21 -40 24 -25 8 45 12 49 28 27 13 -19 13 -24 -2 -48
-14 -20 -15 -25 -3 -24 29 5 37 -1 37 -25 0 -14 2 -28 5 -32 10 -9 37 5 44 24
3 10 18 28 32 40 14 12 21 22 15 23 -6 0 -17 -7 -24 -15 -7 -9 -19 -14 -25
-11 -8 3 -11 -2 -8 -13 2 -10 -3 -23 -11 -30 -27 -23 -20 31 9 65 15 17 20 31
14 35 -7 4 -4 9 6 13 23 8 22 9 28 -16 5 -17 9 -19 21 -9 11 10 15 9 19 -1 2
-7 3 -5 2 5 -2 9 1 17 6 17 4 0 6 18 4 41 -3 35 -2 39 11 28 9 -7 13 -21 11
-31 -3 -10 -1 -15 5 -12 5 3 7 16 4 29 -4 15 -1 25 9 29 8 3 15 14 15 25 0 15
5 19 17 14 13 -5 15 -2 10 11 -4 10 -7 21 -7 24 0 4 -5 0 -10 -8 -8 -12 -10
-13 -10 -1 0 8 6 22 14 30 20 23 9 66 -25 101 -16 16 -29 32 -29 37 0 4 5 1
10 -7 8 -13 10 -13 10 1 0 9 -9 28 -20 41 -10 14 -16 28 -13 32 3 3 1 6 -6 6
-8 0 -11 -8 -8 -19 2 -10 1 -25 -4 -32 -7 -11 -13 -10 -30 7 l-21 21 31 22
c17 13 29 27 26 32 -3 5 -22 -7 -41 -26 -19 -19 -39 -35 -44 -35 -6 0 -10 -5
-10 -12 0 -9 -3 -9 -12 1 -11 10 -8 16 12 31 21 17 22 20 7 20 -23 0 -17 24 8
28 10 3 15 0 11 -7 -11 -17 10 -13 25 5 16 19 78 14 124 -10 32 -17 60 -22 35
-6 -8 5 -11 12 -7 17 4 4 17 2 27 -5 11 -6 27 -9 36 -5 13 5 11 8 -12 18 -24
10 -33 10 -53 -2 -19 -12 -23 -13 -19 -2 4 10 -5 15 -31 16 -71 4 -85 3 -95
-7 -28 -28 -23 -2 14 65 42 77 48 100 11 43 -11 -18 -21 -27 -21 -20 0 7 -4
10 -10 7 -5 -3 -10 -11 -10 -16 0 -6 5 -7 10 -4 6 3 10 4 10 1 0 -11 -43 -76
-50 -76 -11 0 -6 40 9 70 l12 25 -20 -24 c-12 -13 -21 -29 -21 -37 0 -19 -29
-18 -35 1 -15 47 -18 51 -22 31 -3 -10 0 -23 6 -29 14 -14 14 -27 0 -27 -13 0
-48 41 -49 57 0 11 41 29 88 38 11 2 33 10 50 19 16 8 58 20 92 25 35 6 68 15
74 21 15 15 -114 1 -141 -16 -34 -21 -39 -17 -12 12 53 57 135 73 163 32 9
-12 16 -28 16 -34 0 -6 -34 -41 -76 -78 -41 -36 -71 -66 -65 -66 16 0 151 122
151 136 0 8 9 14 20 14 11 0 20 5 20 10 0 6 -8 10 -18 10 -10 0 -19 7 -19 15
0 19 36 11 54 -12 15 -20 6 -43 -14 -36 -11 4 -14 2 -9 -6 5 -7 16 -9 29 -5
31 9 31 10 18 43 -15 35 -37 43 -121 43 l-65 0 44 20 c23 11 67 22 96 25 45 5
58 2 86 -17 29 -22 33 -22 44 -7 7 9 23 17 36 17 19 0 21 2 9 10 -34 22 20 9
84 -20 64 -28 66 -30 49 -48 -10 -10 -25 -16 -32 -13 -10 3 -11 6 -3 9 19 6
14 18 -8 19 -11 1 -18 -2 -15 -8 4 -5 0 -9 -7 -9 -23 -1 24 -30 48 -30 13 0
30 10 38 22 15 21 14 24 -11 50 -15 15 -34 28 -42 28 -9 0 -29 7 -44 15 -25
13 -33 13 -63 0 -46 -19 -43 -6 10 43 53 49 99 74 121 66 14 -6 14 -8 -2 -19
-10 -7 -22 -11 -28 -8 -5 4 -7 2 -2 -2 4 -5 -6 -14 -23 -21 -16 -7 -30 -18
-30 -24 0 -15 16 -12 34 5 9 10 17 11 21 5 4 -6 13 -3 23 8 9 10 13 11 7 4 -8
-12 -5 -14 15 -7 34 10 33 10 23 42 -12 35 -48 41 -95 17 -18 -10 -37 -18 -41
-19 -5 0 -17 -11 -28 -25 -18 -23 -19 -23 -9 -2 13 27 79 72 109 75 11 1 23 7
25 14 8 19 15 17 159 -29 l129 -42 -38 -13 c-22 -8 -82 -25 -134 -39 -52 -14
-99 -30 -104 -35 -16 -15 13 -10 124 20 58 16 128 34 155 41 28 7 59 16 70 21
11 4 78 24 149 44 l128 36 92 -88 c50 -48 190 -185 311 -304 121 -118 299
-293 396 -387 l176 -172 -31 -125 c-17 -69 -33 -125 -37 -125 -3 0 -15 21 -27
46 -13 26 -25 44 -29 41 -3 -3 8 -28 25 -55 29 -47 30 -50 18 -103 -8 -33 -15
-48 -19 -39 -4 9 -5 7 -2 -5 2 -11 -13 -87 -34 -170 -36 -140 -39 -147 -45
-110 -4 22 -16 59 -27 83 -11 24 -17 48 -13 53 12 20 -15 64 -42 65 -14 1 -24
-2 -22 -8 2 -5 7 -9 12 -8 10 2 26 -20 26 -34 0 -6 -5 -5 -12 2 -7 7 -19 12
-27 12 -10 -1 -3 -12 20 -33 52 -45 71 -90 74 -169 3 -53 0 -68 -11 -68 -8 0
-14 -4 -14 -10 0 -5 5 -10 11 -10 15 0 0 -91 -20 -113 -9 -12 -16 -37 -16 -67
0 -26 -3 -46 -6 -44 -4 2 -17 -41 -30 -96 -12 -55 -26 -100 -31 -100 -10 0
-10 15 1 62 8 34 7 36 -10 25 -11 -7 -14 -14 -8 -18 7 -4 7 -13 -2 -26 -10
-18 -9 -25 9 -48 21 -27 21 -29 5 -47 -16 -18 -17 -17 -35 29 -13 36 -15 49
-5 55 9 5 7 11 -8 22 -11 8 -24 11 -29 6 -5 -5 -15 -6 -22 -3 -8 3 -14 -1 -14
-8 1 -8 -41 -54 -92 -103 -51 -49 -86 -84 -77 -77 9 6 34 10 55 9 21 0 55 7
74 16 35 17 35 17 -11 -26 -42 -40 -50 -43 -88 -40 -32 3 -45 10 -57 31 -12
21 -22 27 -40 23 -29 -5 -32 -22 -4 -22 11 0 20 -7 20 -16 0 -11 -6 -14 -22
-9 -30 9 -39 18 -42 41 -3 21 -26 32 -26 12 0 -7 7 -23 15 -34 8 -12 11 -24 7
-28 -3 -4 1 -4 10 -1 9 4 19 2 22 -3 3 -5 36 -8 73 -6 l68 4 -44 -21 c-23 -11
-68 -23 -98 -26 -46 -5 -59 -3 -85 17 -28 20 -32 21 -40 6 -5 -9 -18 -16 -29
-16 -11 0 -17 -4 -14 -10 11 -18 -22 -11 -91 20 -63 29 -66 32 -48 45 10 8 26
14 34 15 10 0 11 -3 4 -8 -9 -5 -8 -11 2 -20 13 -12 18 -8 15 11 0 4 5 7 11 7
23 1 -25 30 -49 30 -26 0 -47 -32 -38 -59 5 -16 31 -31 100 -57 31 -11 38 -11
68 3 39 19 33 3 -15 -44 -51 -48 -103 -77 -129 -70 -11 3 -19 1 -19 -4 0 -16
54 -9 88 11 17 11 32 17 32 13 0 -3 10 2 22 13 l23 19 -20 -24 c-24 -28 -67
-51 -95 -51 -11 0 -20 -4 -20 -10 0 -15 37 -12 69 5 33 16 77 65 86 96 4 11
19 25 33 31 25 9 132 22 132 15 0 -1 -29 -25 -65 -52 -73 -55 -89 -83 -21 -35
25 16 47 30 51 30 3 0 19 13 35 30 16 16 53 41 83 54 29 13 70 38 92 57 l38
34 -46 -88 c-26 -48 -43 -87 -39 -87 12 0 69 100 88 154 9 28 23 61 32 74 l15
23 -34 -20 c-37 -21 -118 -45 -126 -38 -5 6 68 76 80 77 4 0 3 -10 -3 -23 -11
-21 -10 -21 4 -3 9 11 16 16 16 11 0 -4 9 0 20 10 11 10 20 23 20 29 0 6 -9 0
-20 -14 -11 -14 -20 -19 -20 -12 0 20 47 63 63 57 7 -3 19 -22 26 -41 7 -20
21 -44 30 -53 24 -24 10 -59 -26 -66 -42 -9 -73 -24 -73 -34 0 -12 113 18 122
32 4 7 8 27 8 45 0 29 3 33 21 27 15 -5 19 -4 15 4 -4 6 -2 11 4 11 6 0 8 5 5
10 -4 6 -10 8 -15 5 -5 -3 -7 5 -4 17 3 13 10 46 16 73 5 28 14 55 19 62 7 7
6 14 -2 19 -9 5 -9 10 2 18 8 6 24 26 35 44 16 25 23 30 27 19 3 -9 -5 -27
-19 -42 -17 -18 -23 -33 -18 -44 6 -13 8 -12 11 7 3 12 8 22 13 22 11 0 24 39
22 65 -1 13 14 32 43 55 25 19 64 54 86 76 l41 42 -22 103 c-12 57 -27 128
-32 157 -10 54 -28 74 -20 23 3 -20 -6 -49 -28 -90 -18 -34 -34 -60 -36 -58
-2 2 5 31 15 65 11 35 22 80 26 102 4 22 10 38 14 36 4 -3 8 12 9 32 0 20 7
57 14 82 l14 44 27 -52 28 -53 -32 -55 c-17 -30 -29 -57 -26 -60 7 -7 67 99
67 118 0 8 -14 36 -31 63 l-31 49 37 145 37 146 -193 191 c-488 480 -785 767
-800 772 -5 2 -82 -17 -172 -43 l-164 -46 -146 50 c-124 42 -147 48 -158 35z
m-179 -188 c0 -11 -19 -15 -25 -6 -3 5 1 10 9 10 9 0 16 -2 16 -4z m-515 -205
c-6 -5 -25 10 -25 20 0 5 6 4 14 -3 8 -7 12 -15 11 -17z m55 -91 c0 -8 -7 -26
-16 -38 -10 -14 -13 -30 -8 -40 4 -9 8 -20 8 -24 1 -3 5 -10 9 -14 4 -5 5 12
1 36 -7 42 -6 44 10 31 9 -8 15 -20 12 -28 -3 -8 -2 -12 3 -8 5 3 11 2 14 -2
2 -5 2 -2 0 6 -3 12 0 11 15 -2 14 -13 21 -14 30 -5 9 9 12 7 12 -9 0 -11 7
-24 16 -27 9 -4 14 -13 10 -21 -3 -8 -1 -15 4 -15 13 0 24 21 14 29 -14 10
-36 52 -30 58 8 9 38 -26 31 -37 -3 -5 -1 -10 5 -10 6 0 15 11 22 25 13 29 24
26 22 -7 -2 -37 -14 -56 -38 -62 -16 -4 -22 -12 -21 -28 1 -13 -2 -32 -8 -43
-9 -18 -9 -19 6 -6 10 7 17 21 17 31 0 10 7 23 15 30 21 17 41 -1 48 -43 4
-18 9 -46 12 -63 5 -22 2 -34 -11 -45 -16 -13 -17 -11 -12 34 3 26 2 47 -3 47
-5 0 -9 -4 -9 -10 0 -5 -4 -10 -10 -10 -5 0 -9 3 -9 8 1 4 1 15 0 25 -1 16 -6
14 -30 -11 -20 -19 -28 -36 -25 -49 3 -11 -2 -25 -11 -33 -13 -11 -18 -10 -33
6 -10 10 -17 31 -15 47 1 17 -3 27 -11 27 -8 0 -12 -9 -9 -23 3 -14 -2 -31
-12 -41 -21 -20 -25 -17 -35 26 -8 30 -9 31 -15 11 -4 -13 -14 -23 -21 -23
-16 0 -19 -16 -4 -25 6 -4 4 -16 -6 -31 -15 -22 -17 -23 -29 -7 -13 18 -1 63
17 63 4 0 8 5 8 12 0 23 32 48 50 38 12 -7 23 -4 39 11 22 20 23 24 26 74 1
17 5 38 10 49 7 16 5 17 -16 11 -38 -12 -50 -35 -46 -87 4 -50 -5 -61 -25 -29
-6 10 -18 17 -25 14 -11 -4 -12 1 -7 23 4 16 10 31 14 34 4 3 8 25 8 49 l1 45
-20 -30 c-21 -32 -25 -49 -9 -39 16 10 11 -11 -5 -25 -13 -10 -13 -15 -3 -21
7 -4 10 -10 7 -13 -3 -3 -14 0 -24 8 -16 12 -17 16 -6 29 7 9 10 21 7 26 -4 5
-2 12 3 15 5 3 12 21 15 40 6 29 10 33 28 28 14 -3 19 -1 15 6 -4 5 -1 13 5
16 7 3 2 3 -11 0 -21 -6 -23 -4 -18 17 4 13 7 33 7 43 0 18 2 18 25 -4 14 -13
25 -31 25 -40z m49 -47 c-10 -11 -15 -11 -30 3 -17 15 -17 18 -2 40 l16 24 13
-26 c11 -20 11 -30 3 -41z m-28 -163 c-9 -21 -10 -18 -9 25 1 28 4 55 7 60 11
18 12 -60 2 -85z m204 3 c-18 -17 -18 -17 -13 5 4 15 2 25 -8 29 -8 3 -11 10
-8 15 4 6 15 2 27 -10 19 -20 19 -21 2 -39z m-374 -41 c-11 -21 -27 -44 -36
-52 -20 -17 -58 -90 -51 -97 3 -3 13 9 23 27 10 18 25 42 35 54 16 20 16 19 7
-28 -5 -26 -19 -80 -31 -120 -11 -39 -22 -78 -23 -86 -3 -23 -45 -192 -55
-220 -4 -14 -19 -70 -31 -125 -12 -55 -25 -103 -28 -107 -3 -3 -22 22 -42 57
l-37 64 54 93 c40 68 54 86 54 68 0 -14 5 -32 10 -40 6 -10 7 -2 3 25 -3 22
-7 42 -9 44 -2 2 7 20 20 40 35 56 59 104 47 97 -5 -4 -22 -29 -37 -56 -15
-28 -29 -48 -31 -46 -3 2 -15 55 -28 117 l-23 112 56 51 c77 69 122 116 122
127 0 5 6 9 14 9 8 0 16 7 20 15 3 8 8 15 11 15 3 0 -3 -17 -14 -38z m324 -51
c7 -17 -24 -53 -39 -45 -6 3 -3 -1 7 -9 20 -17 22 -50 3 -66 -11 -9 -14 -1
-20 46 -4 37 -3 59 4 61 5 2 10 10 10 18 0 9 -6 11 -17 7 -16 -6 -16 -5 -5 10
11 13 17 14 33 4 10 -6 21 -18 24 -26z m-192 -35 c17 -13 15 -36 -6 -64 -8
-10 -13 -8 -23 7 -15 21 -9 51 10 51 6 0 4 5 -4 10 -8 5 -10 10 -5 10 6 -1 18
-7 28 -14z m81 -29 c-17 -56 -54 -65 -54 -14 0 31 3 34 30 35 27 1 30 -2 24
-21z m50 -3 c7 -19 -10 -44 -30 -44 -16 0 -19 16 -4 25 5 3 7 12 3 20 -3 9 1
15 10 15 8 0 18 -7 21 -16z m-194 -55 c0 -11 -4 -17 -10 -14 -5 3 -10 13 -10
21 0 8 5 14 10 14 6 0 10 -9 10 -21z m142 -34 c-6 -14 -16 -25 -22 -25 -14 0
-12 57 3 63 21 8 31 -11 19 -38z m-149 -55 c3 -11 1 -18 -4 -14 -5 3 -9 12 -9
20 0 20 7 17 13 -6z m57 15 c0 -2 -3 -11 -6 -19 -5 -13 -9 -14 -20 -5 -19 16
-17 24 6 26 11 1 20 0 20 -2z m2221 -597 c5 -24 15 -73 23 -111 l15 -67 -47
-44 c-26 -24 -67 -60 -92 -81 -24 -20 -50 -44 -57 -53 -10 -14 -11 -12 -9 18
4 45 28 100 56 125 27 25 53 72 47 88 -3 7 -9 1 -15 -13 -14 -33 -52 -88 -52
-75 0 34 43 149 76 202 21 34 40 60 43 58 2 -2 7 -23 12 -47z m-724 -804 c-3
-3 -12 -4 -19 -1 -8 3 -5 6 6 6 11 1 17 -2 13 -5z m-180 -80 c-3 -3 -12 -4
-19 -1 -8 3 -5 6 6 6 11 1 17 -2 13 -5z"/>
<path d="M643 2170 c1 -21 21 -27 32 -11 3 6 -3 15 -14 21 -17 8 -20 7 -18
-10z"/>
<path d="M666 2125 c-4 -11 -12 -30 -17 -42 -7 -18 -5 -23 7 -23 19 0 27 20
22 57 -4 25 -5 26 -12 8z"/>
<path d="M2646 964 c-20 -20 -34 -39 -32 -42 3 -3 22 11 43 31 20 20 34 39 31
42 -3 3 -22 -11 -42 -31z"/>
<path d="M1580 2707 c0 -8 221 -79 227 -73 2 2 -42 19 -99 36 -57 18 -109 35
-115 38 -7 2 -13 2 -13 -1z"/>
<path d="M1262 2614 c7 -6 600 -6 607 1 2 3 -134 5 -304 5 -170 0 -306 -2
-303 -6z"/>
<path d="M1880 2611 c0 -5 9 -11 20 -14 11 -3 18 -1 15 3 -3 5 20 11 52 13 56
3 56 3 -14 5 -40 1 -73 -2 -73 -7z"/>
<path d="M2129 2611 c29 -5 41 -16 75 -73 45 -72 59 -91 54 -68 -1 8 -6 17 -9
20 -4 3 -23 33 -43 68 -35 59 -39 62 -74 61 l-37 -2 34 -6z"/>
<path d="M1059 2593 c-13 -16 -12 -17 4 -4 9 7 17 15 17 17 0 8 -8 3 -21 -13z"/>
<path d="M963 2575 c3 -21 33 -23 52 -3 7 7 2 9 -17 6 -15 -3 -30 0 -32 6 -3
6 -4 2 -3 -9z"/>
<path d="M1104 2549 c14 -17 26 -34 26 -39 0 -5 3 -17 6 -27 4 -13 0 -11 -15
7 l-21 25 8 -24 c5 -13 7 -35 4 -48 -3 -19 -7 -21 -18 -12 -8 6 -14 18 -14 25
0 8 -4 14 -10 14 -16 0 -12 -13 15 -45 21 -25 26 -28 35 -15 5 8 10 23 10 33
0 14 5 17 20 12 11 -3 20 -3 20 1 0 16 -45 100 -59 111 -29 23 -33 13 -7 -18z"/>
<path d="M1984 2573 c9 -9 89 -33 94 -29 3 3 -85 36 -96 36 -3 0 -2 -3 2 -7z"/>
<path d="M1050 2551 c-12 -24 -13 -34 -1 -27 4 3 13 -6 20 -21 6 -14 14 -23
17 -20 3 3 -2 17 -11 31 -10 14 -15 33 -11 41 8 22 -1 19 -14 -4z"/>
<path d="M2281 2476 c2 -2 47 -18 99 -36 162 -53 153 -47 166 -130 13 -90 34
-173 40 -167 4 4 -12 91 -43 234 -4 18 -26 29 -127 63 -113 37 -145 46 -135
36z"/>
<path d="M852 2414 c-12 -8 -22 -21 -22 -29 0 -9 9 -6 27 11 30 28 27 41 -5
18z"/>
<path d="M893 2403 c-19 -7 -16 -33 4 -33 9 0 13 3 10 7 -4 3 -2 12 4 20 12
13 5 16 -18 6z"/>
<path d="M850 2369 c0 -5 5 -7 10 -4 6 3 10 8 10 11 0 2 -4 4 -10 4 -5 0 -10
-5 -10 -11z"/>
<path d="M915 2360 c-3 -5 1 -10 10 -10 9 0 13 5 10 10 -3 6 -8 10 -10 10 -2
0 -7 -4 -10 -10z"/>
<path d="M468 2353 c7 -3 16 -2 19 1 4 3 -2 6 -13 5 -11 0 -14 -3 -6 -6z"/>
<path d="M820 2288 c0 -13 -5 -29 -12 -36 -9 -9 -9 -15 0 -24 9 -9 12 -7 12
12 0 22 1 22 18 7 23 -21 39 -22 22 -2 -11 13 -8 14 19 11 26 -3 29 -1 20 11
-7 7 -14 11 -17 9 -3 -3 -18 4 -33 15 l-29 20 0 -23z"/>
<path d="M890 2300 c0 -6 7 -10 15 -10 8 0 15 2 15 4 0 2 -7 6 -15 10 -8 3
-15 1 -15 -4z"/>
<path d="M2353 2285 c2 -5 75 -133 161 -283 142 -248 159 -281 172 -350 7 -42
18 -93 23 -112 8 -29 9 -31 10 -10 1 14 -6 52 -14 85 -9 32 -13 65 -10 72 2 8
-1 26 -9 41 -7 15 -17 47 -21 72 -12 73 -52 241 -60 248 -4 4 -5 -2 -2 -13 16
-54 48 -227 43 -232 -2 -3 -12 10 -22 29 -56 109 -297 512 -271 453z"/>
<path d="M431 2177 c-15 -39 -14 -45 5 -19 8 12 13 28 11 35 -3 6 -10 -1 -16
-16z"/>
<path d="M840 2196 c0 -8 54 -38 81 -46 38 -11 37 -6 -8 25 -32 21 -73 33 -73
21z"/>
<path d="M1213 2135 c-180 -49 -413 -214 -413 -294 0 -16 5 -33 11 -37 8 -5
10 1 6 18 -15 57 96 159 257 238 96 48 199 80 212 67 9 -9 -14 -64 -47 -113
-16 -23 -82 -92 -148 -154 -106 -99 -181 -187 -181 -212 0 -17 16 -7 37 24 56
80 212 224 321 295 144 95 153 98 122 47 -37 -60 -147 -211 -213 -292 -32 -40
-57 -76 -53 -79 3 -3 16 7 28 23 46 57 124 141 182 193 58 52 206 155 213 148
2 -2 -50 -58 -115 -123 -65 -65 -135 -145 -156 -178 -52 -78 -81 -164 -72
-211 9 -47 21 -37 17 14 -6 90 73 217 236 379 77 76 112 117 105 124 -5 5 -19
7 -30 4 -33 -11 -133 -80 -192 -132 -30 -27 -48 -39 -40 -28 123 175 145 214
116 214 -14 0 -118 -61 -186 -108 -22 -15 -21 -12 7 23 40 50 75 128 67 149
-7 19 -22 19 -91 1z"/>
<path d="M860 2111 c5 -11 10 -28 10 -38 0 -15 -2 -16 -10 -3 -8 12 -10 9 -10
-12 0 -16 4 -28 10 -28 12 0 24 65 14 82 -4 7 2 5 13 -4 11 -10 25 -18 33 -18
7 0 1 9 -13 20 -34 27 -62 27 -47 1z"/>
<path d="M415 1818 c4 -18 14 -44 22 -57 9 -14 16 -41 17 -60 1 -27 7 -39 28
-50 31 -18 47 -9 28 14 -9 11 -15 13 -20 5 -5 -7 -9 -4 -13 9 -5 22 7 29 18
11 3 -5 14 -10 23 -10 12 1 3 13 -26 38 -28 25 -47 53 -58 85 -18 54 -29 62
-19 15z"/>
<path d="M1780 1823 c-14 -9 -55 -40 -91 -69 -53 -43 -79 -57 -134 -69 -78
-19 -116 -16 -72 5 33 16 34 24 2 38 -18 8 -33 9 -52 1 -34 -13 -73 -48 -73
-66 0 -16 10 -16 45 -3 18 7 31 6 44 -2 13 -8 34 -7 87 5 59 13 70 13 79 1 9
-12 17 -12 63 1 49 15 55 15 66 0 10 -14 18 -15 78 -2 55 11 65 11 61 0 -3 -8
24 2 61 22 66 37 81 38 50 4 -9 -10 -13 -22 -10 -27 6 -9 24 -7 100 13 20 5
27 5 22 -3 -11 -17 9 -23 43 -11 23 8 35 8 46 -1 11 -9 31 -8 90 4 82 17 95
22 95 36 0 5 -18 3 -40 -5 -23 -8 -64 -17 -93 -20 l-52 -6 28 18 c32 21 33 24
7 41 -16 10 -27 9 -58 -4 -41 -18 -152 -54 -166 -54 -5 0 -2 8 7 18 10 10 17
24 17 30 0 15 -35 15 -62 1 -15 -8 -19 -8 -14 0 11 17 -3 13 -30 -8 -26 -21
-159 -49 -171 -37 -4 4 3 16 17 26 32 25 17 25 -34 1 -23 -11 -59 -23 -81 -26
-40 -6 -40 -6 -18 12 12 10 48 33 81 51 62 35 112 76 112 92 0 15 -23 12 -50
-7z m5 -27 c-37 -30 -85 -59 -85 -52 0 8 93 75 105 76 6 0 -3 -11 -20 -24z
m-305 -85 c0 -10 -91 -44 -98 -37 -2 3 11 14 29 25 35 22 69 27 69 12z m740 0
c0 -10 -89 -45 -96 -38 -3 2 10 14 28 26 34 21 68 28 68 12z"/>
<path d="M1800 1740 c0 -5 5 -10 10 -10 6 0 10 5 10 10 0 6 -4 10 -10 10 -5 0
-10 -4 -10 -10z"/>
<path d="M1493 1495 l-48 -56 -52 7 c-61 7 -83 -4 -83 -45 l0 -26 13 25 c13
26 61 38 95 25 12 -5 10 -11 -14 -37 -50 -53 -123 -70 -125 -29 0 11 -2 12 -6
3 -8 -20 17 -42 49 -42 21 0 43 14 83 51 56 53 86 60 79 17 -12 -65 45 -58 93
11 16 22 34 40 41 41 16 0 15 -4 -7 -41 -32 -53 -8 -78 36 -37 20 19 23 19 23
4 0 -30 30 -30 61 0 16 15 29 32 29 37 0 5 -12 -2 -26 -17 -43 -43 -57 -31
-29 24 11 21 23 30 43 31 23 2 24 2 5 6 -24 5 -30 18 -13 28 6 3 10 14 10 23
-1 13 -5 12 -20 -8 -11 -14 -24 -30 -30 -37 -5 -7 -10 -18 -10 -26 0 -18 -55
-70 -70 -65 -7 2 -2 17 14 41 31 46 31 47 5 47 -17 0 -19 4 -13 23 7 22 6 22
-15 3 -11 -11 -21 -25 -21 -32 0 -16 -46 -71 -71 -85 -17 -8 -19 -6 -19 21 0
22 5 30 18 30 9 0 24 5 32 10 11 8 7 9 -14 4 -26 -6 -28 -5 -21 17 6 20 30 76
43 102 2 4 -1 7 -7 7 -5 0 -31 -25 -58 -55z m7 -39 c-7 -23 -16 -33 -25 -30
-11 5 -10 13 8 39 27 41 33 38 17 -9z"/>
<path d="M2510 1275 c-10 -13 -10 -19 2 -33 9 -9 14 -22 12 -27 -2 -6 7 -12
21 -13 31 -2 65 -19 65 -31 0 -8 -47 6 -110 33 -10 4 -27 -6 -48 -29 -19 -19
-37 -35 -42 -35 -4 0 -11 -10 -14 -22 -7 -22 -8 -22 -15 -4 -7 18 -8 18 -14 3
-3 -9 -2 -17 3 -17 6 0 10 -4 10 -10 0 -5 -6 -9 -12 -7 -9 1 -12 -8 -10 -27 3
-20 0 -27 -10 -24 -7 3 -12 12 -12 21 1 9 -3 14 -8 11 -5 -3 -7 -17 -4 -30 7
-28 -11 -33 -29 -7 -10 13 -12 5 -11 -47 1 -45 -3 -64 -13 -68 -11 -4 -13 8
-9 58 4 50 2 59 -7 46 -13 -17 -30 -23 -20 -6 3 6 1 10 -5 10 -8 0 -9 -11 -5
-32 13 -57 25 -80 45 -85 23 -6 27 -23 5 -23 -19 0 -19 -9 0 -34 8 -10 12 -23
9 -28 -3 -5 -9 -22 -14 -39 -7 -22 -6 -29 3 -26 6 2 12 14 12 27 0 17 6 23 27
26 36 3 42 -9 24 -43 l-15 -28 -1 28 c0 15 -4 27 -9 27 -20 0 -20 -19 0 -44
l21 -27 17 33 c22 39 44 50 39 18 -2 -13 3 -25 11 -28 11 -4 12 2 7 24 -4 16
-8 37 -9 47 -1 9 -5 17 -10 17 -4 0 -5 5 -2 10 9 15 -28 12 -51 -4 -26 -18
-50 -5 -39 20 8 18 8 18 12 2 3 -10 9 -18 14 -18 12 0 11 7 -1 31 -9 17 -7 19
18 19 19 0 38 10 58 31 23 25 25 29 8 21 -17 -9 -25 -8 -34 3 -6 8 -8 20 -4
26 4 8 3 9 -4 5 -19 -12 -14 10 7 28 16 15 18 22 9 36 -9 14 -9 22 1 34 7 9
16 14 20 11 9 -5 6 -108 -3 -126 -4 -8 3 -1 16 14 16 19 30 26 41 21 22 -8 22
-13 -8 -44 -17 -18 -25 -40 -29 -77 -5 -54 7 -71 32 -46 27 26 32 12 11 -29
-15 -29 -23 -37 -29 -28 -5 9 -8 4 -7 -12 l2 -26 24 26 c13 14 28 39 34 56 13
40 37 76 49 76 5 0 4 -8 -2 -19 -5 -11 -10 -32 -10 -48 0 -17 -8 -33 -20 -40
-28 -18 -43 -50 -28 -59 7 -4 10 -3 5 1 -4 5 10 26 30 47 33 34 38 45 39 91 2
64 2 65 13 49 6 -11 9 -9 13 6 4 15 2 19 -8 15 -15 -6 -10 20 9 45 6 8 6 12
-2 12 -6 0 -11 -5 -11 -11 0 -8 -5 -7 -15 1 -17 14 -12 45 13 73 8 9 11 17 6
17 -5 0 -2 5 6 10 11 7 12 12 4 20 -9 9 -13 5 -18 -14 -3 -14 -11 -26 -17 -26
-18 0 -21 30 -5 55 16 24 15 25 -4 25 -22 0 -28 25 -7 32 19 8 37 -2 37 -19 0
-13 3 -13 15 -3 13 11 18 10 29 -5 24 -33 27 1 5 57 -22 58 -49 94 -49 68 -1
-11 -3 -11 -11 3 -12 21 -23 22 -39 2z m65 -34 c3 -5 1 -12 -5 -16 -5 -3 -10
1 -10 9 0 18 6 21 15 7z m-81 -73 c-4 -13 -17 -34 -30 -47 -13 -13 -22 -27
-19 -31 3 -4 -1 -10 -9 -13 -9 -4 -16 3 -20 16 -6 25 21 60 41 53 8 -3 13 0
12 7 -3 26 2 37 17 37 11 0 14 -6 8 -22z m16 -56 c0 -19 -18 -42 -32 -42 -12
0 -9 35 4 48 17 17 28 15 28 -6z m-48 -54 c-7 -7 -12 -20 -12 -30 0 -10 -7
-18 -15 -18 -9 0 -15 9 -15 23 0 29 7 37 34 37 15 0 17 -3 8 -12z m61 -31 c-7
-28 -22 -47 -37 -47 -6 0 -4 5 4 10 12 8 10 10 -8 10 -19 0 -22 4 -17 23 15
50 70 55 58 4z m-188 -49 c0 -13 -4 -29 -8 -35 -8 -13 3 -17 32 -13 13 1 13
-1 1 -15 -10 -13 -15 -13 -21 -3 -7 10 -9 10 -9 1 0 -7 -9 -13 -20 -13 -21 0
-27 14 -11 24 5 3 7 15 4 26 -3 11 -3 27 1 35 9 23 32 18 31 -7z m-88 -10 c-3
-8 -6 -5 -6 6 -1 11 2 17 5 13 3 -3 4 -12 1 -19z m293 -17 c0 -18 -13 -42 -38
-69 -42 -46 -72 -54 -72 -22 0 18 3 19 21 9 30 -16 41 4 34 61 -2 25 -1 39 3
33 6 -9 12 -8 22 7 17 24 30 17 30 -19z m-78 -37 c-7 -27 -11 -34 -16 -23 -7
16 10 76 19 67 3 -3 1 -23 -3 -44z m-88 -116 c-3 -5 -12 -4 -20 3 -7 6 -11 15
-8 21 3 5 12 4 20 -3 7 -6 11 -15 8 -21z"/>
<path d="M2577 1133 c-3 -5 1 -17 9 -28 14 -18 14 -18 14 2 0 23 -15 39 -23
26z"/>
<path d="M2587 1069 c-21 -12 -23 -65 -3 -72 10 -4 16 6 20 35 8 47 7 50 -17
37z"/>
<path d="M1225 1001 c0 -31 4 -47 11 -44 6 2 9 16 7 31 -4 27 -4 27 10 -3 l14
-30 17 30 17 30 -4 -27 c-3 -17 0 -28 8 -28 7 0 10 11 7 30 -2 17 1 37 8 45
10 12 9 15 -4 15 -10 0 -23 -14 -30 -32 l-14 -32 -16 32 c-23 44 -31 40 -31
-17z"/>
<path d="M1356 1037 c3 -8 -2 -29 -11 -46 -14 -28 -14 -31 0 -31 9 0 13 5 10
10 -3 6 3 10 14 10 10 0 21 -6 24 -12 2 -7 7 -10 11 -7 9 9 -26 81 -42 87 -7
2 -10 -2 -6 -11z m24 -37 c0 -5 -4 -10 -10 -10 -5 0 -10 5 -10 10 0 6 5 10 10
10 6 0 10 -4 10 -10z"/>
<path d="M1428 1005 c3 -29 9 -45 17 -45 8 0 11 8 8 23 l-5 22 16 -22 c10 -13
24 -23 33 -23 11 0 9 5 -8 19 -20 16 -22 23 -13 38 6 10 20 18 30 18 15 0 19
-7 19 -38 0 -34 2 -37 27 -37 15 0 30 5 33 10 4 7 -2 9 -19 4 -15 -4 -26 -2
-26 4 0 6 8 13 18 15 16 4 16 5 0 6 -11 1 -18 9 -18 21 0 23 10 26 28 8 9 -9
12 -8 12 5 0 14 -10 17 -49 17 -39 0 -52 -5 -65 -22 l-17 -23 5 23 c3 16 -1
22 -13 22 -13 0 -15 -8 -13 -45z"/>
<path d="M1629 1008 c6 -40 8 -43 36 -43 28 0 30 3 36 43 5 38 3 42 -15 42
-15 0 -17 -3 -8 -9 20 -12 11 -65 -12 -69 -16 -3 -18 1 -14 37 3 32 0 41 -12
41 -13 0 -15 -8 -11 -42z"/>
<path d="M1725 1005 c0 -29 4 -45 12 -45 7 0 10 6 7 14 -4 10 2 16 18 18 46 6
31 57 -17 58 -17 0 -20 -7 -20 -45z m45 9 c0 -8 -7 -14 -15 -14 -15 0 -21 21
-9 33 10 9 24 -2 24 -19z"/>
<path d="M2190 1010 c2 -14 -1 -36 -7 -49 -9 -22 -10 -22 -27 -6 -9 10 -20 15
-23 11 -7 -7 37 -45 54 -46 6 0 13 -5 15 -12 2 -6 12 -12 22 -14 13 -2 12 3
-8 21 -27 25 -33 49 -16 60 11 7 8 40 -4 52 -4 5 -7 -3 -6 -17z"/>
<path d="M2130 891 c41 -35 74 -46 98 -32 15 9 13 10 -8 11 -14 0 -34 6 -45
13 -11 7 -33 18 -50 25 l-30 12 35 -29z"/>
<path d="M445 795 c9 -61 9 -60 41 -212 3 -19 22 -28 110 -55 l105 -33 61
-107 61 -108 91 2 91 2 -87 5 -88 6 -55 93 c-30 51 -55 95 -55 97 0 2 20 -3
46 -12 25 -8 47 -13 50 -10 3 3 -19 12 -50 21 -55 16 -55 17 -111 111 -31 52
-58 95 -61 95 -6 0 54 -111 85 -160 14 -21 14 -23 1 -18 -8 3 -52 17 -97 32
l-82 27 -11 57 c-18 88 -51 212 -45 167z"/>
<path d="M2195 810 c3 -5 8 -10 11 -10 2 0 4 5 4 10 0 6 -5 10 -11 10 -5 0 -7
-4 -4 -10z"/>
<path d="M2150 787 c0 -5 6 -7 14 -4 7 3 25 -6 39 -19 33 -31 39 -30 35 4 -3
25 -7 27 -45 28 -24 0 -43 -4 -43 -9z"/>
<path d="M2135 761 c-2 -5 4 -11 15 -14 11 -3 20 -2 20 3 0 12 -28 21 -35 11z"/>
<path d="M2590 755 c-7 -9 -8 -15 -2 -15 5 0 12 7 16 15 3 8 4 15 2 15 -2 0
-9 -7 -16 -15z"/>
<path d="M2133 733 c4 -3 2 -12 -4 -19 -12 -14 -4 -34 13 -34 7 0 6 6 -2 15
-10 13 -9 15 9 15 11 0 21 -4 21 -9 0 -5 9 -7 20 -4 11 3 20 10 20 17 0 6 5 4
10 -4 7 -12 12 -12 21 -3 10 10 9 14 -4 19 -10 3 -23 2 -30 -4 -8 -7 -20 -6
-37 3 -26 15 -48 20 -37 8z"/>
<path d="M2283 697 c19 -6 37 -6 50 0 18 8 12 10 -28 10 -45 0 -47 -1 -22 -10z"/>
<path d="M2353 691 c-12 -11 -23 -19 -25 -18 -2 1 0 -2 4 -7 3 -4 19 3 35 18
15 14 23 26 17 26 -5 0 -20 -9 -31 -19z"/>
<path d="M2211 681 c-1 -8 -11 -26 -23 -39 l-23 -25 23 12 c26 14 37 34 29 53
-4 10 -6 9 -6 -1z"/>
<path d="M2151 664 c-12 -14 -11 -16 4 -12 10 1 20 9 23 16 5 17 -10 15 -27
-4z"/>
<path d="M1933 630 c-4 -24 -10 -29 -24 -25 -11 4 -19 4 -19 2 0 -15 46 -104
59 -114 29 -23 33 -13 7 18 -14 17 -26 34 -26 39 0 5 -3 17 -6 27 -4 13 0 11
15 -7 11 -14 21 -20 21 -14 0 5 -5 15 -12 22 -9 9 -9 15 -1 23 6 6 9 18 6 25
-4 10 0 12 13 7 17 -6 17 -5 5 10 -20 25 -31 21 -38 -13z"/>
<path d="M1980 606 c0 -9 5 -16 10 -16 6 0 10 4 10 9 0 6 -4 13 -10 16 -5 3
-10 -1 -10 -9z"/>
<path d="M2440 602 c0 -12 19 -26 26 -19 2 2 -2 10 -11 17 -9 8 -15 8 -15 2z"/>
<path d="M1970 577 c0 -3 9 -21 21 -39 17 -28 19 -29 14 -8 -7 24 -35 62 -35
47z"/>
<path d="M2125 560 c3 -5 11 -10 16 -10 6 0 7 5 4 10 -3 6 -11 10 -16 10 -6 0
-7 -4 -4 -10z"/>
<path d="M1910 476 c0 -2 7 -7 16 -10 8 -3 12 -2 9 4 -6 10 -25 14 -25 6z"/>
<path d="M2205 360 l-40 -69 -90 -4 -90 -3 91 -2 91 -2 25 38 c31 47 61 103
56 107 -2 2 -21 -27 -43 -65z"/>
<path d="M961 416 c8 -9 212 -77 216 -72 3 2 -40 19 -94 36 -54 18 -105 35
-113 38 -8 3 -12 2 -9 -2z"/>
<path d="M2030 353 l-45 -47 50 44 c28 24 52 45 54 47 2 2 0 3 -5 3 -6 0 -30
-21 -54 -47z"/>
<path d="M1205 330 c11 -5 27 -9 35 -9 9 0 8 4 -5 9 -11 5 -27 9 -35 9 -9 0
-8 -4 5 -9z"/>
<path d="M1300 301 c8 -3 -37 -8 -100 -12 l-115 -5 137 -2 c75 -1 143 -5 152
-8 9 -3 16 -2 16 4 0 5 -15 12 -32 15 -18 4 -42 8 -53 10 -11 2 -14 2 -5 -2z"/>
<path d="M1438 283 c12 -2 30 -2 40 0 9 3 -1 5 -23 4 -22 0 -30 -2 -17 -4z"/>
<path d="M1408 263 c7 -3 16 -2 19 1 4 3 -2 6 -13 5 -11 0 -14 -3 -6 -6z"/>
<path d="M1867 210 c-38 -33 -71 -60 -75 -60 -4 0 -54 16 -112 35 -58 19 -112
35 -120 34 -16 0 217 -79 235 -79 11 0 154 129 145 130 -3 0 -36 -27 -73 -60z"/>
</g>
</svg>
